#!OML:ASF G:\JayActor3\Patient Classification 1\Patient 1\Session 6\male.ASF
:FULLY-SPECIFIED
:DEGREES
617
root 8.49124 16.384 -0.338451 8.75769 -59.2518 -9.7263
lowerback 7.95275 0.570843 1.01882
upperback 8.66478 0.610935 -2.04716
thorax 4.5997 0.323046 -2.73234
lowerneck -10.2605 1.12008 1.42931
upperneck 23.4653 1.66326 -2.81478
head 9.07224 0.49592 -1.04162
rclavicle 1.17681e-013 -5.725e-014
rhumerus -24.1356 11.1188 -89.4857
rradius 26.1688
rwrist 8.01286
rhand -16.2154 -5.57145
rfingers 7.12502
rthumb 9.99238 -35.3143
lclavicle 1.17681e-013 -5.725e-014
lhumerus -21.1305 -3.37309 81.3126
lradius 51.0164
lwrist 26.0857
lhand -18.8045 9.39772
lfingers 7.12502
lthumb 7.49381 39.245
rfemur -26.6345 -1.8076 23.7503
rtibia 57.1996
rfoot -20.5327 -13.5807
rtoes -9.9243
lfemur -21.3715 11.2536 -18.8785
ltibia 29.1125
lfoot -8.92923 8.91912
ltoes -2.50972
618
root 8.45623 16.3837 -0.32002 9.05491 -58.8022 -9.71789
lowerback 8.21645 0.554243 1.00673
upperback 8.8108 0.58073 -1.98783
thorax 4.60692 0.303712 -2.66503
lowerneck -10.2337 1.02774 1.31751
upperneck 23.1481 1.55947 -2.80896
head 8.95394 0.445314 -1.02895
rclavicle -1.74931e-014 0
rhumerus -23.7314 11.4344 -89.3195
rradius 25.9986
rwrist 8.14909
rhand -16.1999 -5.58717
rfingers 7.12502
rthumb 10.0073 -35.3293
lclavicle -1.74931e-014 0
lhumerus -20.722 -3.96691 81.3379
lradius 52.371
lwrist 26.5972
lhand -18.7315 9.31374
lfingers 7.12502
lthumb 7.56434 39.1585
rfemur -27.3503 -1.71903 23.6635
rtibia 55.7713
rfoot -20.643 -13.4281
rtoes -10.4145
lfemur -21.7746 11.0604 -18.9045
ltibia 29.3678
lfoot -9.11798 8.74297
ltoes -2.56665
619
root 8.42137 16.3837 -0.302943 9.35367 -58.3512 -9.70927
lowerback 8.50295 0.545711 1.00864
upperback 8.94571 0.561964 -1.92631
thorax 4.59088 0.290558 -2.60371
lowerneck -10.1821 0.927326 1.2025
upperneck 22.8236 1.4429 -2.79546
head 8.82881 0.389473 -1.01441
rclavicle -2.62396e-014 2.38542e-014
rhumerus -23.339 11.7112 -89.1465
rradius 25.86
rwrist 8.25391
rhand -16.2224 -5.62423
rfingers 7.12502
rthumb 9.98561 -35.3674
lclavicle -2.62396e-014 2.38542e-014
lhumerus -20.3516 -4.58412 81.3571
lradius 53.7352
lwrist 27.0736
lhand -18.6175 9.23522
lfingers 7.12502
lthumb 7.67439 39.076
rfemur -28.0331 -1.616 23.5593
rtibia 54.335
rfoot -20.694 -13.0994
rtoes -10.974
lfemur -22.173 10.8802 -18.9255
ltibia 29.6046
lfoot -9.30011 8.55983
ltoes -2.64423
620
root 8.38712 16.3839 -0.287146 9.6738 -57.8853 -9.71811
lowerback 8.81025 0.538751 1.043
upperback 9.06603 0.547323 -1.86256
thorax 4.54891 0.281044 -2.55844
lowerneck -10.0982 0.820446 1.09175
upperneck 22.4918 1.31493 -2.77737
head 8.69574 0.32931 -1.0001
rclavicle 8.50798e-014 -9.54166e-015
rhumerus -22.9552 11.9396 -88.9685
rradius 25.743
rwrist 8.3375
rhand -16.2617 -5.66327
rfingers 7.12502
rthumb 9.94764 -35.4082
lclavicle 8.50798e-014 -9.54166e-015
lhumerus -20.0218 -5.21859 81.3669
lradius 55.1044
lwrist 27.5158
lhand -18.5021 9.17426
lfingers 7.12502
lthumb 7.7857 39.0109
rfemur -28.6851 -1.50563 23.4531
rtibia 52.9049
rfoot -20.7133 -12.6343
rtoes -11.5895
lfemur -22.5797 10.6983 -18.9303
ltibia 29.8327
lfoot -9.47765 8.36824
ltoes -2.72765
621
root 8.35356 16.3841 -0.272117 10.0142 -57.4182 -9.74629
lowerback 9.13591 0.537441 1.11544
upperback 9.1747 0.542735 -1.79714
thorax 4.48593 0.278502 -2.53329
lowerneck -9.99126 0.706503 0.974998
upperneck 22.1608 1.17607 -2.75137
head 8.55915 0.264343 -0.983109
rclavicle -2.94201e-014 9.54166e-015
rhumerus -22.5769 12.1276 -88.7801
rradius 25.6474
rwrist 8.40572
rhand -16.323 -5.70441
rfingers 7.12502
rthumb 9.88855 -35.4522
lclavicle -2.94201e-014 9.54166e-015
lhumerus -19.7261 -5.8897 81.3672
lradius 56.4723
lwrist 27.9291
lhand -18.4297 9.14325
lfingers 7.12502
lthumb 7.85558 38.9773
rfemur -29.3027 -1.37635 23.3463
rtibia 51.501
rfoot -20.7342 -12.091
rtoes -12.2108
lfemur -22.9895 10.5173 -18.9191
ltibia 30.0529
lfoot -9.64044 8.17787
ltoes -2.8693
622
root 8.32066 16.3844 -0.257929 10.3619 -56.9502 -9.78338
lowerback 9.47211 0.542843 1.21838
upperback 9.28256 0.549196 -1.7286
thorax 4.4179 0.283023 -2.52267
lowerneck -9.87214 0.585753 0.85127
upperneck 21.8268 1.02815 -2.7224
head 8.42 0.194893 -0.964634
rclavicle 2.0276e-014 -1.66979e-014
rhumerus -22.1828 12.2734 -88.5719
rradius 25.5656
rwrist 8.46413
rhand -16.3832 -5.73873
rfingers 7.12502
rthumb 9.83045 -35.4893
lclavicle 2.0276e-014 -1.66979e-014
lhumerus -19.4524 -6.61359 81.3565
lradius 57.8377
lwrist 28.3208
lhand -18.4301 9.13651
lfingers 7.12502
lthumb 7.85523 38.9706
rfemur -29.8824 -1.21988 23.2334
rtibia 50.1418
rfoot -20.7888 -11.5342
rtoes -12.6729
lfemur -23.3975 10.3288 -18.895
ltibia 30.2646
lfoot -9.78602 7.98916
ltoes -3.02698
623
root 8.28887 16.3853 -0.245287 10.7134 -56.4784 -9.82147
lowerback 9.82048 0.557879 1.34808
upperback 9.39112 0.570591 -1.65587
thorax 4.34578 0.296297 -2.52375
lowerneck -9.75086 0.453021 0.710104
upperneck 21.4934 0.86449 -2.68286
head 8.28119 0.11768 -0.941014
rclavicle 0 7.95139e-016
rhumerus -21.7654 12.3563 -88.3365
rradius 25.4981
rwrist 8.51245
rhand -16.4415 -5.77504
rfingers 7.12502
rthumb 9.77419 -35.5282
lclavicle 0 7.95139e-016
lhumerus -19.1461 -7.33101 81.3465
lradius 59.1247
lwrist 28.6248
lhand -18.4584 9.12371
lfingers 7.12502
lthumb 7.82791 38.9588
rfemur -30.4381 -1.02441 23.1104
rtibia 48.8467
rfoot -20.8679 -11.0727
rtoes -12.9437
lfemur -23.8083 10.1301 -18.8628
ltibia 30.4592
lfoot -9.89711 7.80299
ltoes -3.24148
624
root 8.25824 16.387 -0.234618 11.0615 -56.0015 -9.85981
lowerback 10.1899 0.584963 1.50495
upperback 9.50241 0.610337 -1.57968
thorax 4.2673 0.319994 -2.53797
lowerneck -9.62853 0.305258 0.554866
upperneck 21.1595 0.679716 -2.62975
head 8.14257 0.0307543 -0.9123
rclavicle -1.10524e-013 1.51076e-014
rhumerus -21.3242 12.371 -88.0752
rradius 25.4436
rwrist 8.54811
rhand -16.4975 -5.80592
rfingers 7.12502
rthumb 9.72019 -35.5616
lclavicle -1.10524e-013 1.51076e-014
lhumerus -18.8208 -8.07287 81.3334
lradius 60.3576
lwrist 28.8575
lhand -18.5143 9.09155
lfingers 7.12502
lthumb 7.774 38.9286
rfemur -30.9676 -0.782115 22.9763
rtibia 47.629
rfoot -20.9562 -10.7782
rtoes -12.9097
lfemur -24.2137 9.91554 -18.8198
ltibia 30.6301
lfoot -9.97683 7.61666
ltoes -3.44492
625
root 8.22917 16.39 -0.227183 11.3816 -55.4921 -9.86361
lowerback 10.5874 0.615441 1.66632
upperback 9.61622 0.655947 -1.49775
thorax 4.17737 0.346467 -2.54972
lowerneck -9.51636 0.140353 0.37679
upperneck 20.8271 0.471723 -2.55801
head 8.00689 -0.0671555 -0.875533
rclavicle 2.78299e-015 -1.27222e-014
rhumerus -20.853 12.3274 -87.7853
rradius 25.3984
rwrist 8.55816
rhand -16.5634 -5.81841
rfingers 7.12502
rthumb 9.65662 -35.5771
lclavicle 2.78299e-015 -1.27222e-014
lhumerus -18.4608 -8.79992 81.3271
lradius 61.512
lwrist 28.995
lhand -18.5525 9.03449
lfingers 7.12502
lthumb 7.73708 38.8729
rfemur -31.4826 -0.504182 22.8137
rtibia 46.5012
rfoot -21.0301 -10.7082
rtoes -12.4872
lfemur -24.6231 9.6628 -18.784
ltibia 30.769
lfoot -10.0191 7.42242
ltoes -3.61026
626
root 8.20185 16.3941 -0.2228 11.6956 -54.9476 -9.8631
lowerback 11.0192 0.646176 1.85416
upperback 9.7322 0.705073 -1.40861
thorax 4.07282 0.37564 -2.56984
lowerneck -9.40944 -0.0409152 0.184281
upperneck 20.4907 0.240225 -2.46813
head 7.8717 -0.17554 -0.832264
rclavicle 3.53837e-014 -3.18055e-014
rhumerus -20.3557 12.2307 -87.474
rradius 25.3681
rwrist 8.54716
rhand -16.6367 -5.83071
rfingers 7.12502
rthumb 9.58586 -35.5926
lclavicle 3.53837e-014 -3.18055e-014
lhumerus -18.0691 -9.50615 81.3233
lradius 62.5858
lwrist 29.0464
lhand -18.598 8.96071
lfingers 7.12502
lthumb 7.69317 38.8008
rfemur -31.9831 -0.206048 22.643
rtibia 45.4692
rfoot -21.0331 -10.8681
rtoes -11.6833
lfemur -25.0335 9.37527 -18.7369
ltibia 30.8735
lfoot -10.0262 7.21607
ltoes -3.72239
627
root 8.17597 16.3988 -0.220551 11.9708 -54.3743 -9.82648
lowerback 11.4844 0.673515 2.05419
upperback 9.85367 0.752323 -1.31928
thorax 3.95749 0.404223 -2.59736
lowerneck -9.30943 -0.234636 -0.0239188
upperneck 20.1483 -0.00977082 -2.35652
head 7.73688 -0.291847 -0.780612
rclavicle 5.56597e-015 -1.19271e-014
rhumerus -19.8349 12.11 -87.1499
rradius 25.3547
rwrist 8.50073
rhand -16.7188 -5.84389
rfingers 7.12502
rthumb 9.50667 -35.6094
lclavicle 5.56597e-015 -1.19271e-014
lhumerus -17.6288 -10.1645 81.322
lradius 63.5511
lwrist 29.017
lhand -18.6299 8.86692
lfingers 7.12502
lthumb 7.66239 38.7081
rfemur -32.462 0.0822256 22.4469
rtibia 44.5378
rfoot -20.9412 -11.2284
rtoes -10.6324
lfemur -25.4335 9.05824 -18.702
ltibia 30.9457
lfoot -10.0053 7.00017
ltoes -3.80278
628
root 8.15143 16.4036 -0.219597 12.1857 -53.7714 -9.73088
lowerback 11.982 0.689904 2.26021
upperback 9.98057 0.787783 -1.23747
thorax 3.83147 0.427163 -2.63606
lowerneck -9.2113 -0.43467 -0.236846
upperneck 19.7966 -0.270408 -2.22975
head 7.6007 -0.412196 -0.723839
rclavicle -3.26007e-014 2.94201e-014
rhumerus -19.296 11.9845 -86.8246
rradius 25.3609
rwrist 8.42458
rhand -16.8075 -5.87061
rfingers 7.12502
rthumb 9.42113 -35.64
lclavicle -3.26007e-014 2.94201e-014
lhumerus -17.1741 -10.7783 81.3138
lradius 64.4403
lwrist 28.9368
lhand -18.6614 8.76888
lfingers 7.12502
lthumb 7.63199 38.6112
rfemur -32.9153 0.317961 22.2175
rtibia 43.7087
rfoot -20.7227 -11.7119
rtoes -9.42761
lfemur -25.8222 8.71143 -18.6972
ltibia 30.9996
lfoot -9.97255 6.7715
ltoes -3.82373
629
root 8.12774 16.408 -0.219546 12.3576 -53.1256 -9.59468
lowerback 12.5023 0.687233 2.48364
upperback 10.1139 0.801958 -1.15788
thorax 3.70082 0.440291 -2.68572
lowerneck -9.10948 -0.635591 -0.454918
upperneck 19.4282 -0.533834 -2.08962
head 7.45995 -0.533036 -0.661692
rclavicle -1.16885e-013 1.11319e-014
rhumerus -18.7419 11.8868 -86.5008
rradius 25.3933
rwrist 8.30307
rhand -16.9113 -5.931
rfingers 7.12502
rthumb 9.32095 -35.7049
lclavicle -1.16885e-013 1.11319e-014
lhumerus -16.7235 -11.3469 81.2975
lradius 65.2718
lwrist 28.8278
lhand -18.6909 8.66883
lfingers 7.12502
lthumb 7.60355 38.5121
rfemur -33.3415 0.462617 21.9807
rtibia 42.9813
rfoot -20.3592 -12.2448
rtoes -8.28801
lfemur -26.2092 8.34332 -18.7121
ltibia 31.0507
lfoot -9.92951 6.5174
ltoes -3.86613
630
root 8.10546 16.4108 -0.219987 12.5086 -52.4682 -9.42867
lowerback 13.022 0.675405 2.71273
upperback 10.258 0.806456 -1.07122
thorax 3.58311 0.448701 -2.73039
lowerneck -9.00472 -0.834676 -0.681497
upperneck 19.0326 -0.79225 -1.95389
head 7.31154 -0.652397 -0.598644
rclavicle -4.92986e-014 1.27222e-014
rhumerus -18.161 11.8472 -86.1587
rradius 25.4553
rwrist 8.12793
rhand -17.0266 -6.0256
rfingers 7.12502
rthumb 9.2097 -35.8045
lclavicle -4.92986e-014 1.27222e-014
lhumerus -16.3017 -11.8932 81.2802
lradius 66.0933
lwrist 28.7358
lhand -18.7372 8.58257
lfingers 7.12502
lthumb 7.55884 38.4275
rfemur -33.7624 0.506258 21.7456
rtibia 42.354
rfoot -19.8277 -12.7241
rtoes -7.36602
lfemur -26.617 7.97386 -18.7504
ltibia 31.1188
lfoot -9.88622 6.24903
ltoes -3.90019
